<?xml version="1.0" encoding="utf-8"?>
<!-- Generator: Adobe Illustrator 16.0.0, SVG Export Plug-In . SVG Version: 6.00 Build 0)  -->
<!DOCTYPE svg PUBLIC "-//W3C//DTD SVG 1.1//EN" "http://www.w3.org/Graphics/SVG/1.1/DTD/svg11.dtd">
<svg version="1.1" id="Layer_1" xmlns="http://www.w3.org/2000/svg" xmlns:xlink="http://www.w3.org/1999/xlink" x="0px" y="0px"
	 width="1920px" height="1080px" viewBox="0 0 1920 1080" enable-background="new 0 0 1920 1080" xml:space="preserve">
<path fill="none" stroke="#000000" stroke-miterlimit="10" d="M857.831,569.811c1.56-2.848,0.286-5.922-2.831-6.833
	s-6.412-4.206-7.323-7.322c-0.911-3.116-3.986-4.391-6.833-2.831c-2.848,1.561-7.508,1.561-10.355,0
	c-2.847-1.56-5.922-0.285-6.833,2.831c-0.911,3.116-4.206,6.411-7.323,7.322s-4.391,3.985-2.831,6.833
	c1.56,2.848,1.56,7.508,0,10.355c-1.56,2.848-0.286,5.924,2.831,6.834s6.412,4.205,7.323,7.322c0.911,3.117,3.986,4.391,6.833,2.83
	c2.848-1.559,7.508-1.559,10.355,0c2.847,1.561,5.922,0.287,6.833-2.83c0.911-3.117,4.206-6.412,7.323-7.322
	s4.391-3.986,2.831-6.834C856.271,577.318,856.271,572.658,857.831,569.811z"/>
</svg>
