<?xml version="1.0" encoding="utf-8"?>
<!-- Generator: Adobe Illustrator 16.0.0, SVG Export Plug-In . SVG Version: 6.00 Build 0)  -->
<!DOCTYPE svg PUBLIC "-//W3C//DTD SVG 1.1//EN" "http://www.w3.org/Graphics/SVG/1.1/DTD/svg11.dtd">
<svg version="1.1" id="Layer_1" xmlns="http://www.w3.org/2000/svg" xmlns:xlink="http://www.w3.org/1999/xlink" x="0px" y="0px"
	 width="100px" height="100px" viewBox="0 0 100 100" enable-background="new 0 0 100 100" xml:space="preserve">
<g>
	<g>
		<path fill="#FFFFFF" d="M78.588,34.541l7.077-7.078c1.677-1.676,1.677-4.394,0-6.068c-1.677-1.676-4.392-1.676-6.066,0
			l-7.078,7.078l-7.078-7.078c-1.677-1.676-4.392-1.676-6.067,0c-1.676,1.675-1.676,4.393,0,6.068l7.078,7.078l-7.078,7.079
			c-1.676,1.676-1.676,4.394,0,6.067c1.677,1.676,4.392,1.676,6.067,0l7.078-7.079l7.078,7.079c1.677,1.676,4.392,1.676,6.066,0
			c1.677-1.673,1.677-4.391,0-6.067L78.588,34.541z M16.312,24.39v20.674h17.25l17.227,16.078V7.162L33.562,24.39H16.312z"/>
	</g>
</g>
</svg>
